# xmcd CD database file
#
# Track frame offsets:
#	150
#	21095
#	39755
#	56710
#	82300
#	111007
#	122887
#	147867
#	173317
#	185727
#	220595
#	241542
#	259300
#
# Disc length: 3680 seconds
#
# Revision: 2
# Processed by: cddbd v1.5.1PL0 Copyright (c) Steve Scherf et al.
# Submitted via: CDex 1.51
#
DISCID=ac0e5e0d
DTITLE=Laurie Krauz - Catch Me If You Can
DYEAR=1900
DGENRE=Jazz
TTITLE0=Day Dream
TTITLE1=Daryl's Thing/All The Things You Are
TTITLE2=When Will I Know
TTITLE3=Ducksoup
TTITLE4=Some Enchanted Evening
TTITLE5=Please Don't Do It In Here
TTITLE6=Sugar In My Bowl
TTITLE7=My Foolish Heart
TTITLE8=Birthday Blues
TTITLE9=Live Is Here To Stay
TTITLE10=So Many Stars
TTITLE11=Catch Me If You Can
TTITLE12=When You're Smiling
EXTD=
EXTT0=
EXTT1=
EXTT2=
EXTT3=
EXTT4=
EXTT5=
EXTT6=
EXTT7=
EXTT8=
EXTT9=
EXTT10=
EXTT11=
EXTT12=
PLAYORDER=
